<svg width="202" height="78" viewBox="0 0 202 78" fill="none" xmlns="http://www.w3.org/2000/svg">
<path d="M44.3497 33.3618C43.9049 34.6901 43.2091 35.9081 42.35 36.9384C41.0591 38.4868 39.3326 39.6459 37.3653 39.7386C34.2037 39.8869 31.1068 38.9299 28.1251 37.9622C24.5534 36.803 21.5924 34.9617 18.3014 33.2672C15.7959 31.9774 14.1702 30.1685 12.336 28.1167C10.4699 26.0297 10.857 22.7516 12.1284 20.3805C13.0083 18.7388 12.6773 16.6713 13.9455 15.3328C15.2581 13.9475 16.8907 13.0711 18.1187 11.5681C19.522 9.85091 21.2369 9.34666 23.4058 8.95317C25.4795 8.57684 27.568 8.55551 29.6476 8.33351C31.2848 8.15878 32.8116 8.00074 34.379 8.71124C35.656 9.29011 36.7323 10.1267 38.0149 10.7074C39.3581 11.3155 40.4849 12.2178 41.2089 13.5308C42.7273 16.2834 42.4869 19.7766 43.3838 22.7428C44.3885 26.0649 45.4973 29.9335 44.3497 33.3618ZM38.3603 25.1213C37.7625 22.2876 37.4532 17.8115 35.0734 15.8311C33.4528 14.4824 30.7679 14.7067 28.851 15.0533C26.3862 15.4992 23.9907 16.9281 22.3641 18.864C20.2118 21.4247 21.5522 25.4198 23.5515 27.5911C24.8516 29.0033 26.3131 30.6444 27.9684 31.6321C29.4923 32.5414 31.7426 32.9938 32.4948 33.8563C33.8149 34.4013 35.1469 34.6113 36.5645 34.6155C38.014 34.6192 38.4102 33.8169 38.739 32.5285C39.3345 30.1967 38.8444 27.4168 38.3603 25.1213Z" fill="#FF8749"/>
<path d="M35.6063 29.3843C35.5147 29.4672 35.4033 29.5321 35.2697 29.5757C34.074 29.9664 31.9948 28.6363 31.1676 27.8535C30.1759 26.9159 29.2761 25.4082 28.7856 24.18C28.2372 22.8063 28.4776 21.11 30.2711 20.9547C32.2852 20.78 33.3699 22.766 34.3852 24.1114C35.0399 24.9781 36.6771 28.4152 35.6063 29.3843Z" fill="#302C26"/>
<path d="M51.7998 35.5567C51.3745 38.4478 51.2154 41.357 48.8925 43.4648C46.7019 45.4522 43.5962 46 40.6819 46C37.303 46 34.4586 44.7704 31.1703 44.3871L33.158 44.8613C30.5022 44.3056 27.9676 43.4301 25.309 42.9633C22.9334 42.5467 20.5509 41.9785 18.2058 41.4478C15.7904 40.9009 13.738 39.7093 11.5418 38.6508C8.31828 37.0968 5.96719 34.5435 3.38724 32.1033C2.0672 30.8552 1.04539 29.2702 0.402249 27.5372C-0.355093 25.4966 0.155349 23.2988 0.340292 21.21C0.655158 17.6454 1.74586 14.6458 3.7955 11.6486C5.58806 9.02721 8.02746 6.89572 10.5038 4.95054C12.6973 3.22829 15.2712 2.84175 17.5437 1.41288C21.4169 -1.02265 27.5459 0.161053 31.6965 1.4634C34.4591 2.33009 37.3178 2.6091 40.0897 3.40534C42.4643 4.08757 43.5698 5.17208 44.5149 7.44215C45.6713 10.2197 46.8299 12.7623 47.449 15.7174C48.07 18.6827 49.1875 21.7077 50.3642 24.4927C51.797 27.8853 52.3283 31.9625 51.7998 35.5567ZM47.6418 26.652C47.5364 25.6032 47.3945 24.5576 47.2571 23.5111C47.1027 22.3357 47.1587 20.9235 46.8813 19.7551C46.3468 17.5064 45.4026 15.4398 44.4437 13.3625C43.4801 11.2746 42.9249 9.09858 41.3709 7.29337C39.4452 5.05667 36.5864 4.43562 33.8705 3.70936C30.6848 2.85797 26.8431 1.96626 23.6015 2.71569C20.5361 3.42434 17.159 3.34926 14.4972 5.22723C13.3196 6.05777 12.2243 7.1446 11.2949 8.26063C10.0498 9.75625 8.56749 11.1221 7.44349 12.7104C5.55337 15.3814 4.73408 18.1747 4.76505 21.4074C4.77846 22.827 4.98607 23.9597 5.33284 24.7495C6.66351 26.7688 7.38895 29.2206 9.01922 31.0508C10.6823 32.9177 12.5512 34.6807 14.3215 36.4377C15.4742 37.582 16.864 38.2364 18.351 38.8922C20.4251 39.8076 22.4812 40.8675 24.6982 41.3509C28.7328 42.2306 32.6563 43.2859 36.7584 43.8653C41.1341 44.4831 44.9005 43.2966 46.633 39.0276C48.2988 34.9203 48.0746 30.9535 47.6418 26.652Z" fill="#FAA3B4"/>
<path fill-rule="evenodd" clip-rule="evenodd" d="M74.3522 0.728958C74.2746 1.12752 73.9863 3.70122 73.7119 6.44795C71.8725 24.8518 71.4445 40.7016 72.7748 41.1505C72.969 41.2162 73.5073 40.4809 73.9708 39.5169C74.8848 37.6176 76.0175 36.6365 77.1137 36.795C77.6852 36.8778 77.8078 37.1062 77.8078 38.0883C77.8078 39.234 77.7083 39.3423 75.2732 40.8434C72.528 42.5356 72.1028 43.2773 73.7835 43.4416C75.1364 43.5737 77.4726 42.205 78.1424 40.8882C78.6442 39.9013 80.7596 38.7259 84.461 37.3775C85.3323 37.0602 86.2758 36.7051 86.5575 36.5885C86.9804 36.4132 87.0976 36.6674 87.2272 38.0393C87.4015 39.8836 87.7604 40.2663 89.323 40.2738C90.4997 40.2792 91.7121 39.5388 93.7281 37.5837C95.2767 36.082 95.2558 36.0088 94.5901 40.6246C93.5516 47.826 93.6435 47.5725 91.0535 50.3843C86.7605 55.0445 83.0597 60.7091 81.0261 65.7334C79.7623 68.8552 78.7735 73.6566 79.0158 75.4944C79.3773 78.2337 81.482 78.8188 83.6871 76.7931C87.4772 73.3108 91.0715 64.7549 93.371 53.7416L94.5413 48.1354L96.7227 46.3952C99.5591 44.1324 102.077 42.5259 105.646 40.7007C108.633 39.1738 112.491 37.701 113.506 37.701C113.824 37.701 114.084 37.5496 114.084 37.3643C114.084 36.4944 108.147 38.3963 104.076 40.5705C101.134 42.1412 98.9718 43.5421 96.2129 45.6638L94.6582 46.8591L94.8461 45.9048C94.9497 45.3799 95.3603 42.6703 95.7589 39.8836C96.3485 35.7617 96.4077 34.74 96.0773 34.4062C95.7475 34.0731 95.3983 34.3167 94.2261 35.6982C92.4459 37.7957 90.2304 39.3896 89.2843 39.2527C88.6608 39.1625 88.5816 38.9653 88.5952 37.5399C88.6038 36.6539 88.7261 35.6754 88.8668 35.3651C89.1893 34.655 88.395 34.5976 87.3806 35.2578C86.9947 35.5091 85.2531 36.2492 83.5106 36.9026C81.7681 37.556 80.2071 38.2204 80.0414 38.3789C79.4588 38.9376 79.0748 38.6554 79.0383 37.6417C78.9401 34.8953 75.5302 34.9646 73.8666 37.7465L73.2823 38.7234L73.0558 36.7373C72.6015 32.7569 74.012 11.8486 75.291 3.60488C75.5473 1.95298 75.6753 0.466689 75.5758 0.302369C75.2359 -0.256642 74.4935 0.00208237 74.3522 0.728958ZM132.305 4.508C131.859 5.24132 130.132 11.6575 128.989 16.8275C127.208 24.8769 126.669 29.1406 126.811 34.0509C126.943 38.5851 127.339 39.9148 128.906 41.0796C130.061 41.9385 132.722 41.8815 134.802 40.9533C136.319 40.2767 141.736 36.6352 143.152 35.3406L143.865 34.6888V36.6065C143.865 38.3886 144.436 39.9564 145.086 39.9564C145.368 39.9564 145.154 33.7667 144.862 33.4564C144.749 33.3372 143.338 34.2332 141.726 35.4479C134.327 41.0232 130.15 42.1193 128.441 38.9347C127.576 37.3218 127.676 29.322 128.632 23.6855C129.445 18.8973 131.784 9.33128 132.755 6.82524C133.115 5.8957 133.41 4.92331 133.41 4.66394C133.41 4.13522 132.601 4.02116 132.305 4.508ZM144.182 28.0351C144.182 28.4646 144.393 28.6795 144.815 28.6795C145.238 28.6795 145.449 28.4646 145.449 28.0351C145.449 27.6056 145.238 27.3907 144.815 27.3907C144.393 27.3907 144.182 27.6056 144.182 28.0351ZM157.964 32.6789C155.455 33.8134 152.62 37.0486 152.793 38.5793C152.881 39.3539 153.05 39.4863 154.06 39.5717C155.346 39.6806 156.546 39.1351 159.543 37.0792L161.441 35.7781L162.146 36.6951C162.534 37.199 163.605 37.952 164.526 38.3683C166.793 39.3926 172.226 39.5627 179.349 38.8326C182.224 38.5378 188.465 38.2149 193.218 38.1154C197.971 38.0158 201.922 37.8318 201.998 37.7065C202.074 37.5815 199.825 37.3904 197 37.2822C191.878 37.0859 185.878 37.3141 176.988 38.0438C168.217 38.7636 164.272 38.0889 162.843 35.6248C162.477 34.9946 162.05 34.4791 161.893 34.4791C161.737 34.4791 160.783 35.0951 159.773 35.8484C157.508 37.5383 154.855 38.8216 154.174 38.5561C153.715 38.3767 153.711 38.2649 154.14 37.4214C155.296 35.1476 159.477 32.5062 160.413 33.4583C160.918 33.9716 161.29 33.931 161.29 33.3626C161.29 32.8188 160.33 32.2179 159.489 32.2362C159.173 32.2433 158.486 32.4424 157.964 32.6789ZM75.9069 41.8896C75.7992 42.0668 75.47 42.2095 75.1753 42.2069C74.7137 42.2024 74.7052 42.1586 75.1148 41.8896C75.7352 41.4817 76.1546 41.4817 75.9069 41.8896ZM92.3702 53.6746C91.383 58.4173 91.1653 59.2437 89.7903 63.4671C87.519 70.4443 83.426 77.009 81.3473 77.009C80.3763 77.009 80.1827 76.5067 80.1887 74.0023C80.2001 69.16 82.7125 62.9612 87.2627 56.5495C89.0271 54.0631 92.8695 49.5279 93.0532 49.7148C93.1172 49.7799 92.8099 51.5619 92.3702 53.6746Z" fill="black"/>
</svg>
