<svg width="24" height="24" viewBox="0 0 24 24" fill="none" xmlns="http://www.w3.org/2000/svg">
<path d="M5.25012 0.75C5.25012 0.75 6.75012 2.25 6.75012 6.75C6.75012 12 2.25012 12.75 2.25012 18.75C2.17229 20.3845 2.70718 21.9891 3.75012 23.25" stroke="#7D5819" stroke-linecap="round" stroke-linejoin="round"/>
<path d="M18.75 0.75C18.75 0.75 17.25 2.25 17.25 6.75C17.25 12 21.75 12.75 21.75 18.75C21.8278 20.3845 21.2929 21.9891 20.25 23.25" stroke="#7D5819" stroke-linecap="round" stroke-linejoin="round"/>
<path d="M12 23.25V20.25" stroke="#7D5819" stroke-linecap="round" stroke-linejoin="round"/>
<path d="M12.0002 20.2498L8.41918 16.5138C8.10415 16.2 7.89596 15.7948 7.82416 15.356C7.75236 14.9171 7.82059 14.4668 8.01918 14.0688C8.16933 13.7686 8.38866 13.5084 8.6591 13.3095C8.92954 13.1107 9.24335 12.9789 9.57468 12.9251C9.90602 12.8713 10.2454 12.897 10.5649 13.0001C10.8843 13.1031 11.1747 13.2806 11.4122 13.5178L12.0002 14.0998L12.5852 13.5148C12.8225 13.2774 13.1129 13.0997 13.4324 12.9965C13.7519 12.8934 14.0914 12.8676 14.4228 12.9214C14.7542 12.9752 15.0681 13.1071 15.3385 13.3061C15.6089 13.505 15.8282 13.7655 15.9782 14.0658C16.1768 14.4638 16.245 14.9141 16.1732 15.353C16.1014 15.7918 15.8932 16.197 15.5782 16.5108L12.0002 20.2498Z" fill="#F2BC62" stroke="#F2BC62" stroke-linecap="round" stroke-linejoin="round"/>
</svg>
