<svg width="16" height="16" viewBox="0 0 16 16" fill="none" xmlns="http://www.w3.org/2000/svg">
<g clip-path="url(#clip0_1429_816)">
<path d="M10.6665 14.8146H1.77765C1.62049 14.8146 1.46976 14.7521 1.35862 14.641C1.24749 14.5299 1.18506 14.3791 1.18506 14.222V2.96271C1.18506 2.80554 1.24749 2.65482 1.35862 2.54368C1.46976 2.43255 1.62049 2.37012 1.77765 2.37012H14.2221C14.3793 2.37012 14.53 2.43255 14.6411 2.54368C14.7523 2.65482 14.8147 2.80554 14.8147 2.96271V10.0738" stroke="black" stroke-linecap="round" stroke-linejoin="round"/>
<path d="M4.14819 1.18555V4.14851" stroke="black" stroke-linecap="round" stroke-linejoin="round"/>
<path d="M11.8518 1.18555V4.14851" stroke="black" stroke-linecap="round" stroke-linejoin="round"/>
<path d="M1.18506 5.3335H14.8147" stroke="black" stroke-linecap="round" stroke-linejoin="round"/>
<path d="M14.8149 10.0742V14.2224C14.8149 14.3795 14.7525 14.5303 14.6413 14.6414C14.5302 14.7525 14.3795 14.815 14.2223 14.815H10.6667" stroke="black" stroke-linecap="round" stroke-linejoin="round"/>
<path d="M3.25928 7.40771H3.85187" stroke="black" stroke-linecap="round" stroke-linejoin="round"/>
<path d="M5.03711 7.40771H5.6297" stroke="black" stroke-linecap="round" stroke-linejoin="round"/>
<path d="M6.81494 7.40771H7.40753" stroke="black" stroke-linecap="round" stroke-linejoin="round"/>
<path d="M8.59253 7.40771H9.18512" stroke="black" stroke-linecap="round" stroke-linejoin="round"/>
<path d="M10.3704 7.40771H10.963" stroke="black" stroke-linecap="round" stroke-linejoin="round"/>
<path d="M12.1482 7.40771H12.7408" stroke="black" stroke-linecap="round" stroke-linejoin="round"/>
<path d="M3.25928 9.18555H3.85187" stroke="black" stroke-linecap="round" stroke-linejoin="round"/>
<path d="M5.03711 9.18555H5.6297" stroke="black" stroke-linecap="round" stroke-linejoin="round"/>
<path d="M6.81494 9.18555H7.40753" stroke="black" stroke-linecap="round" stroke-linejoin="round"/>
<path d="M8.59253 9.18555H9.18512" stroke="black" stroke-linecap="round" stroke-linejoin="round"/>
<path d="M10.3704 9.18555H10.963" stroke="black" stroke-linecap="round" stroke-linejoin="round"/>
<path d="M12.1482 9.18555H12.7408" stroke="black" stroke-linecap="round" stroke-linejoin="round"/>
<path d="M3.25928 10.9629H3.85187" stroke="black" stroke-linecap="round" stroke-linejoin="round"/>
<path d="M5.03711 10.9629H5.6297" stroke="black" stroke-linecap="round" stroke-linejoin="round"/>
<path d="M6.81494 10.9629H7.40753" stroke="black" stroke-linecap="round" stroke-linejoin="round"/>
<path d="M8.59253 10.9629H9.18512" stroke="black" stroke-linecap="round" stroke-linejoin="round"/>
<path d="M10.3704 10.9629H10.963" stroke="black" stroke-linecap="round" stroke-linejoin="round"/>
<path d="M12.1482 10.9629H12.7408" stroke="black" stroke-linecap="round" stroke-linejoin="round"/>
<path d="M3.25928 12.7407H3.85187" stroke="black" stroke-linecap="round" stroke-linejoin="round"/>
<path d="M5.03711 12.7407H5.6297" stroke="black" stroke-linecap="round" stroke-linejoin="round"/>
<path d="M6.81494 12.7407H7.40753" stroke="black" stroke-linecap="round" stroke-linejoin="round"/>
<path d="M8.59253 12.7407H9.18512" stroke="black" stroke-linecap="round" stroke-linejoin="round"/>
<path d="M10.3704 12.7407H10.963" stroke="black" stroke-linecap="round" stroke-linejoin="round"/>
<path d="M12.1482 12.7407H12.7408" stroke="black" stroke-linecap="round" stroke-linejoin="round"/>
</g>
<defs>
<clipPath id="clip0_1429_816">
<rect width="16" height="16" fill="white"/>
</clipPath>
</defs>
</svg>
